<svg xmlns="http://www.w3.org/2000/svg" xmlns:xlink="http://www.w3.org/1999/xlink" width="500" zoomAndPan="magnify" viewBox="0 0 375 374.999991" height="500" preserveAspectRatio="xMidYMid meet" version="1.0"><defs><clipPath id="595b056015"><path d="M 123 126.683594 L 266 126.683594 L 266 188 L 123 188 Z M 123 126.683594 " clip-rule="nonzero"/></clipPath><clipPath id="24c3839ce1"><path d="M 109.277344 187 L 252 187 L 252 248.183594 L 109.277344 248.183594 Z M 109.277344 187 " clip-rule="nonzero"/></clipPath></defs><g clip-path="url(#595b056015)"><path fill="#00adef" d="M 123.808594 187.492188 L 147.296875 187.492188 L 165.792969 164.097656 L 142.304688 164.097656 Z M 242.226562 126.675781 L 193.070312 187.492188 L 216.558594 187.492188 L 265.714844 126.675781 Z M 195.160156 141.957031 L 158.441406 187.492188 L 181.929688 187.492188 L 218.648438 141.957031 L 195.160156 141.957031 " fill-opacity="1" fill-rule="nonzero"/></g><g clip-path="url(#24c3839ce1)"><path fill="#f6f6f6" d="M 251.191406 187.492188 L 227.703125 187.492188 L 209.207031 210.882812 L 232.695312 210.882812 Z M 132.773438 248.304688 L 181.929688 187.492188 L 158.441406 187.492188 L 109.285156 248.304688 Z M 179.839844 233.023438 L 216.558594 187.492188 L 193.070312 187.492188 L 156.351562 233.023438 L 179.839844 233.023438 " fill-opacity="1" fill-rule="nonzero"/></g></svg>