<svg xmlns="http://www.w3.org/2000/svg" xmlns:xlink="http://www.w3.org/1999/xlink" width="500" zoomAndPan="magnify" viewBox="0 0 375 374.999991" height="500" preserveAspectRatio="xMidYMid meet" version="1.0"><defs><clipPath id="b09c57f57f"><path d="M 124 117.773438 L 286.933594 117.773438 L 286.933594 188 L 124 188 Z M 124 117.773438 " clip-rule="nonzero"/></clipPath><clipPath id="ca529d08ec"><path d="M 107.683594 187 L 271 187 L 271 257.273438 L 107.683594 257.273438 Z M 107.683594 187 " clip-rule="nonzero"/></clipPath></defs><g clip-path="url(#b09c57f57f)"><path fill="#00adef" d="M 124.324219 187.515625 L 151.242188 187.515625 L 172.433594 160.6875 L 145.519531 160.6875 Z M 260.015625 117.769531 L 203.691406 187.515625 L 230.605469 187.515625 L 286.933594 117.769531 Z M 206.085938 135.292969 L 164.007812 187.515625 L 190.925781 187.515625 L 233 135.292969 L 206.085938 135.292969 " fill-opacity="1" fill-rule="nonzero"/></g><g clip-path="url(#ca529d08ec)"><path fill="#4f4c4c" d="M 270.289062 187.515625 L 243.375 187.515625 L 222.179688 214.347656 L 249.097656 214.347656 Z M 134.597656 257.265625 L 190.921875 187.515625 L 164.007812 187.515625 L 107.679688 257.265625 Z M 188.527344 239.738281 L 230.605469 187.515625 L 203.691406 187.515625 L 161.613281 239.738281 L 188.527344 239.738281 " fill-opacity="1" fill-rule="nonzero"/></g></svg>